<?xml version="1.0" standalone="no"?>
<!DOCTYPE svg PUBLIC "-//W3C//DTD SVG 20010904//EN"
 "http://www.w3.org/TR/2001/REC-SVG-20010904/DTD/svg10.dtd">
<svg version="1.0" xmlns="http://www.w3.org/2000/svg"
 width="32.000000pt" height="32.000000pt" viewBox="0 0 32.000000 32.000000"
 preserveAspectRatio="xMidYMid meet">

<g transform="translate(0.000000,32.000000) scale(0.100000,-0.100000)"
fill="#000000" stroke="none">
<path d="M92 304 c-107 -55 -121 -198 -26 -271 96 -73 238 -10 251 111 14 119
-120 214 -225 160z m181 -50 c9 -10 -14 -64 -28 -64 -8 0 -17 9 -20 20 -3 11
-10 20 -15 20 -13 0 -51 -135 -44 -154 5 -13 -2 -16 -45 -16 -55 0 -56 1 -41
28 14 27 42 133 35 140 -3 3 -14 -4 -25 -16 -34 -36 -54 -26 -38 19 l10 29
102 0 c57 0 105 -3 109 -6z"/>
</g>
</svg>
